# xmcd
#
# Track frame offsets:
#	150
#	2143
#	15696
#	32004
#	41266
#	54889
#	63425
#	83754
#	100812
#	106705
#	123461
#	138696
#	158101
#	159952
#	179095
#	201387
#
# Disc length: 2764 seconds
#
# Revision: 0
# Processed by: cddbd v1.5PL3 Copyright (c) Steve Scherf et al.
# Submitted via: dBpowerAMP V4.0
#
DISCID=ca0aca10
DTITLE=Moonshine Playboys - Where The Wild Things Are
DYEAR=2003
DGENRE=Bluegrass
TTITLE0=Where The Wild Things Are
TTITLE1=Fight For Your Right
TTITLE2=Enter Sandman
TTITLE3=Backdoor
TTITLE4=Deep In The Heart Of Texas
TTITLE5=The Road Crew
TTITLE6=Caroline
TTITLE7=Going Up The COuntry
TTITLE8=Moonshine Breakdown
TTITLE9=Born To Be Wild
TTITLE10=The Midnight Special
TTITLE11=Stairway To Heaven
TTITLE12=Bicycle Race
TTITLE13=Parlez Nous A Boire
TTITLE14=Will The Circle Be Unbroken
TTITLE15=You Are My Moonshine
EXTD=By Bert Dobbelaere
EXTT0=
EXTT1=
EXTT2=
EXTT3=
EXTT4=
EXTT5=
EXTT6=
EXTT7=
EXTT8=
EXTT9=
EXTT10=
EXTT11=
EXTT12=
EXTT13=
EXTT14=
EXTT15=
PLAYORDER=
